<svg xmlns="http://www.w3.org/2000/svg" viewBox="0 0 344.62 71.52"><defs><style>.cls-1{fill:#2e72b8;}.cls-2{fill:#f38f1a;}.cls-3{fill:#fbfbfb;}</style></defs><g id="Layer_2" data-name="Layer 2"><g id="Layer_1-2" data-name="Layer 1"><path class="cls-1" d="M20.35,28.36A7.73,7.73,0,0,1,17,25.76a6.8,6.8,0,0,1-1.27-4h5.4a3.54,3.54,0,0,0,1.1,2.45,3.9,3.9,0,0,0,2.72.9,4.13,4.13,0,0,0,2.77-.85,2.75,2.75,0,0,0,1-2.21,2.58,2.58,0,0,0-.68-1.84,4.78,4.78,0,0,0-1.71-1.13,28.89,28.89,0,0,0-2.83-.92,30.15,30.15,0,0,1-4-1.42,7.05,7.05,0,0,1-2.63-2.13,6,6,0,0,1-1.09-3.8A6.8,6.8,0,0,1,17,6.94,7.13,7.13,0,0,1,20.08,4.4a11.42,11.42,0,0,1,4.61-.88A10,10,0,0,1,31,5.41a7,7,0,0,1,2.68,5.27H28.15a2.86,2.86,0,0,0-1.1-2.14,4.16,4.16,0,0,0-2.72-.85A3.54,3.54,0,0,0,22,8.45a2.76,2.76,0,0,0-.88,2.2,2.24,2.24,0,0,0,.67,1.67,5.14,5.14,0,0,0,1.65,1.08,28.92,28.92,0,0,0,2.79.95,28.9,28.9,0,0,1,4,1.44A7.15,7.15,0,0,1,32.86,18,6,6,0,0,1,34,21.73a7.19,7.19,0,0,1-1,3.75,7.4,7.4,0,0,1-3.06,2.75,10.38,10.38,0,0,1-4.79,1A12,12,0,0,1,20.35,28.36Z"/><path class="cls-1" d="M68.31,11a8.5,8.5,0,0,1,2.25,6.28V29h-5V18a5,5,0,0,0-1.19-3.58,4.26,4.26,0,0,0-3.24-1.24,4.32,4.32,0,0,0-3.26,1.24A5,5,0,0,0,56.62,18V29h-5V18a5,5,0,0,0-1.18-3.58,4.29,4.29,0,0,0-3.24-1.24,4.38,4.38,0,0,0-3.3,1.24A5,5,0,0,0,42.66,18V29h-5v-20h5v2.41a6.64,6.64,0,0,1,2.5-2,7.79,7.79,0,0,1,3.36-.72,8.66,8.66,0,0,1,4.18,1,6.91,6.91,0,0,1,2.84,2.83,7.19,7.19,0,0,1,2.83-2.77A8.63,8.63,0,0,1,68.31,11Z"/><path class="cls-1" d="M74.53,13.6A8.89,8.89,0,0,1,77.81,10a8.72,8.72,0,0,1,4.63-1.26,8.11,8.11,0,0,1,3.9.9A7.86,7.86,0,0,1,89,11.9V9.06H94.1V29H89V26.09a7.36,7.36,0,0,1-2.68,2.32,8.22,8.22,0,0,1-3.94.92A8.43,8.43,0,0,1,77.81,28a9.1,9.1,0,0,1-3.28-3.65A11.79,11.79,0,0,1,73.33,19,11.59,11.59,0,0,1,74.53,13.6ZM88.3,15.88a5.08,5.08,0,0,0-1.94-2,5.18,5.18,0,0,0-2.63-.7,5.06,5.06,0,0,0-2.59.68,5.24,5.24,0,0,0-1.93,2A6.25,6.25,0,0,0,78.48,19a6.49,6.49,0,0,0,.73,3.15,5.34,5.34,0,0,0,2,2.07,4.92,4.92,0,0,0,2.57.72,5.18,5.18,0,0,0,2.63-.7,5,5,0,0,0,1.94-2A6.43,6.43,0,0,0,89,19,6.49,6.49,0,0,0,88.3,15.88Z"/><path class="cls-1" d="M105.89,9.67a7.05,7.05,0,0,1,3.58-.9v5.3h-1.33a5.12,5.12,0,0,0-3.58,1.11c-.81.75-1.21,2-1.21,3.89V29h-5v-20h5v3.1A7.12,7.12,0,0,1,105.89,9.67Z"/><path class="cls-1" d="M118,13.2v9.65a1.93,1.93,0,0,0,.49,1.46,2.38,2.38,0,0,0,1.64.45h2.34V29H119.3q-6.37,0-6.37-6.2V13.2h-2.38V9.06h2.38V4.13H118V9.06h4.47V13.2Z"/><path class="cls-2" d="M41.5,64h-15l-2.41,7.1H13.84L28.39,30.88H39.72L54.26,71.07H43.9ZM39,56.41,34,41.7,29.07,56.41Z"/><path class="cls-2" d="M74.76,62.76v8.31h-5q-5.32,0-8.31-2.61t-3-8.5V47.25H54.61V39.12H58.5V31.34h9.79v7.78H74.7v8.13H68.29V60.07A2.69,2.69,0,0,0,69,62.13a3.32,3.32,0,0,0,2.29.63Z"/><path class="cls-2" d="M96.28,62.76v8.31h-5q-5.33,0-8.3-2.61T80,60V47.25H76.13V39.12H80V31.34h9.79v7.78h6.41v8.13H89.81V60.07a2.65,2.65,0,0,0,.69,2.06,3.3,3.3,0,0,0,2.29.63Z"/><path class="cls-2" d="M129.94,57.44H107.79A6.62,6.62,0,0,0,109.71,62a5.84,5.84,0,0,0,4.15,1.58,5.13,5.13,0,0,0,5.09-3.1h10.42a14.38,14.38,0,0,1-8.13,9.62,16.75,16.75,0,0,1-7,1.43,17.08,17.08,0,0,1-8.36-2,14.25,14.25,0,0,1-5.72-5.72,17.67,17.67,0,0,1-2.06-8.71,17.81,17.81,0,0,1,2-8.7,14,14,0,0,1,5.69-5.72,17.24,17.24,0,0,1,8.42-2,17,17,0,0,1,8.24,2,14,14,0,0,1,5.64,5.55,16.82,16.82,0,0,1,2,8.42A23.79,23.79,0,0,1,129.94,57.44ZM120.1,52a5.07,5.07,0,0,0-1.72-4,6.35,6.35,0,0,0-4.3-1.48,6.18,6.18,0,0,0-4.15,1.43A6.39,6.39,0,0,0,107.84,52Z"/><path class="cls-2" d="M162,42.41q3.36,3.65,3.35,10V71.07h-9.73V53.72a7,7,0,0,0-1.66-5,6.49,6.49,0,0,0-8.93,0,7,7,0,0,0-1.66,5V71.07h-9.79V39.12h9.79v4.24a10.37,10.37,0,0,1,4-3.35A12.76,12.76,0,0,1,153,38.78,11.6,11.6,0,0,1,162,42.41Z"/><path class="cls-2" d="M170.33,46.39a13.82,13.82,0,0,1,5.07-5.72,13.17,13.17,0,0,1,7.15-2A12.58,12.58,0,0,1,188.31,40a10.51,10.51,0,0,1,4.09,3.55V28.7a15.35,15.35,0,0,1,9.79,0V71.07H192.4V66.49a10.05,10.05,0,0,1-3.92,3.66,12.27,12.27,0,0,1-5.93,1.37,13,13,0,0,1-7.15-2,14,14,0,0,1-5.07-5.78A19.27,19.27,0,0,1,168.47,55,19.1,19.1,0,0,1,170.33,46.39Zm20,2.92a6.88,6.88,0,0,0-9.91,0,7.94,7.94,0,0,0-2,5.76,8.13,8.13,0,0,0,2,5.81,6.84,6.84,0,0,0,9.91,0,8,8,0,0,0,2-5.79A8,8,0,0,0,190.37,49.31Z"/><path class="cls-2" d="M207.48,46.39a13.82,13.82,0,0,1,5.07-5.72,13.2,13.2,0,0,1,7.16-2A12.24,12.24,0,0,1,225.63,40a10.07,10.07,0,0,1,3.92,3.6V39.12h9.79V71.07h-9.79V66.54a10.56,10.56,0,0,1-4,3.61,12.21,12.21,0,0,1-5.92,1.37,12.94,12.94,0,0,1-7.1-2,14,14,0,0,1-5.07-5.78A19.27,19.27,0,0,1,205.62,55,19.1,19.1,0,0,1,207.48,46.39Zm20,2.92a6.87,6.87,0,0,0-9.9,0,7.89,7.89,0,0,0-2,5.76,8.08,8.08,0,0,0,2,5.81,6.83,6.83,0,0,0,9.9,0,8,8,0,0,0,2-5.79A8,8,0,0,0,227.52,49.31Z"/><path class="cls-2" d="M273.15,42.41q3.35,3.65,3.35,10V71.07h-9.74V53.72a7,7,0,0,0-1.66-5,6.49,6.49,0,0,0-8.93,0,7,7,0,0,0-1.66,5V71.07h-9.79V39.12h9.79v4.24a10.33,10.33,0,0,1,4-3.35,12.76,12.76,0,0,1,5.67-1.23A11.61,11.61,0,0,1,273.15,42.41Z"/><path class="cls-2" d="M281.68,46.39a14,14,0,0,1,5.66-5.72,17,17,0,0,1,8.33-2,15.84,15.84,0,0,1,10.05,3.15,14.88,14.88,0,0,1,5.3,8.88H300.6A5,5,0,0,0,295.5,47a5.14,5.14,0,0,0-4.29,2.09,9.65,9.65,0,0,0-1.6,6,9.69,9.69,0,0,0,1.6,6,5.14,5.14,0,0,0,4.29,2.09,5,5,0,0,0,5.1-3.67H311a15,15,0,0,1-5.33,8.82,15.66,15.66,0,0,1-10,3.2,16.94,16.94,0,0,1-8.33-2,14.11,14.11,0,0,1-5.66-5.72,17.88,17.88,0,0,1-2-8.71A17.81,17.81,0,0,1,281.68,46.39Z"/><path class="cls-2" d="M344.45,57.44H322.29A6.7,6.7,0,0,0,324.21,62a5.87,5.87,0,0,0,4.15,1.58,5.15,5.15,0,0,0,5.1-3.1h10.42a14.44,14.44,0,0,1-8.13,9.62,16.75,16.75,0,0,1-7,1.43,17.08,17.08,0,0,1-8.36-2,14.27,14.27,0,0,1-5.73-5.72,17.78,17.78,0,0,1-2.06-8.71,17.92,17.92,0,0,1,2-8.7,14.08,14.08,0,0,1,5.7-5.72A18.51,18.51,0,0,1,337,40.61a14.07,14.07,0,0,1,5.64,5.55,16.93,16.93,0,0,1,2,8.42A26.05,26.05,0,0,1,344.45,57.44ZM334.6,52a5,5,0,0,0-1.72-4,6.3,6.3,0,0,0-4.29-1.48,6.18,6.18,0,0,0-4.15,1.43A6.34,6.34,0,0,0,322.35,52Z"/><path class="cls-3" d="M0,9.78,1,9.9A.56.56,0,0,1,0,9.78Z"/><path class="cls-1" d="M181.24,22.44l0,.13h-.1l-7.53-4.34-2.33-1.33c0,.9,0,1.75,0,2.6,0,.33,0,.58-.44.45a1.87,1.87,0,0,0-.51,0c0-1.07,0-2.15,0-3.22a.58.58,0,0,0-.36-.62c-.47-.24-.92-.52-1.38-.78,0-.17.14-.16.22-.21l27.95-15a.63.63,0,0,1,.71,0l29,16.6.17.12-12.69,6.81c0-1.23-.11-2.47-.07-3.7a3.6,3.6,0,0,0-.94-2.52,9.24,9.24,0,0,0-3.17-2.29A25.24,25.24,0,0,0,201,13a37.87,37.87,0,0,0-9.21.27,22,22,0,0,0-7,2.17,7.87,7.87,0,0,0-3,2.51,2.55,2.55,0,0,0-.53,1.28C181.25,20.28,181.25,21.36,181.24,22.44Z"/><path class="cls-1" d="M170.69,32.48c-.5,0-1,0-1.49,0s-.69-.22-.67-.77A17.31,17.31,0,0,1,170,25.32a2.73,2.73,0,0,0,.3-1.35c0-.16,0-.23.21-.21a3.49,3.49,0,0,0,.56,0c.15,0,.2,0,.19.18a5.25,5.25,0,0,0,.54,2.06,14.09,14.09,0,0,1,1,3.49c.07.76.1,1.52.14,2.28a.6.6,0,0,1-.63.7c-.53,0-1.07,0-1.6,0Z"/><path class="cls-1" d="M172.1,21.67a1.27,1.27,0,0,1-.47,1c-.19.16-.41.25-.42.59s-.35.19-.56.17-.39,0-.36-.24-.16-.34-.32-.45a1.35,1.35,0,0,1-.46-1.66,1.45,1.45,0,0,1,1.53-.81A1.43,1.43,0,0,1,172.1,21.67Z"/><path class="cls-1" d="M182.8,30.2V28.8c0-2.74,0-5.47,0-8.21A3.25,3.25,0,0,1,184,18a11.51,11.51,0,0,1,4-2.1,31.13,31.13,0,0,1,10.63-1.36,29.37,29.37,0,0,1,8.48,1.36,11.75,11.75,0,0,1,3.92,2,3.3,3.3,0,0,1,1.26,2.73c0,3,0,6,0,9v.51a14.27,14.27,0,0,0-1.35-.93c-.6-.33-1.23-.64-1.86-.93a17.36,17.36,0,0,0-2.78-1,31.1,31.1,0,0,0-7.74-1,34.44,34.44,0,0,0-9.75,1A15.27,15.27,0,0,0,182.8,30.2Z"/></g></g></svg>